PathFileType	4	(X/Y/Z)	Patient4_TMGait_0pt4_03_right_04.trc.trc
DataRate	CameraRate	NumFrames	NumMarkers	Units	OrigDataRate	OrigDataStartFrame	OrigNumFrames
76.502732240437	76.502732240437	4	33	mm	76.502732240437	89	       141
Frame#	Time	Sacral			L.Shoulder			Chest			R.Shoulder			Neck			R.ASIS			L.ASIS			R.Thigh.Superior			R.Thigh.Lateral			R.Thigh.Inferior			R.Patella			L.Thigh.Superior			L.Thigh.Lateral			L.Thigh.Inferior			L.Patella			L.Shank.Superior			L.Shank.Lateral			L.Shank.Inferior			R.Shank.Superior			R.Shank.Lateral			R.Shank.Inferior			R.Heel			R.Midfoot.Superior			R.Midfoot.Lateral			R.Toe			L.Heel			L.Midfoot.Lateral			L.Midfoot.Superior			L.Toe			L.Elbow			L.Wrist			R.Elbow			R.Wrist			
		X1	Y1	Z1	X2	Y2	Z2	X3	Y3	Z3	X4	Y4	Z4	X5	Y5	Z5	X6	Y6	Z6	X7	Y7	Z7	X8	Y8	Z8	X9	Y9	Z9	X10	Y10	Z10	X11	Y11	Z11	X12	Y12	Z12	X13	Y13	Z13	X14	Y14	Z14	X15	Y15	Z15	X16	Y16	Z16	X17	Y17	Z17	X18	Y18	Z18	X19	Y19	Z19	X20	Y20	Z20	X21	Y21	Z21	X22	Y22	Z22	X23	Y23	Z23	X24	Y24	Z24	X25	Y25	Z25	X26	Y26	Z26	X27	Y27	Z27	X28	Y28	Z28	X29	Y29	Z29	X30	Y30	Z30	X31	Y31	Z31	X32	Y32	Z32	X33	Y33	Z33	

89	5.320285714286	799.337816637208	1007.213320759309	474.240217190717	949.414491909730	1429.979243646840	263.348840584180	1071.278194613153	1370.097823168362	414.454099325003	1005.681876561353	1446.937264027838	594.358902912012	947.005993478227	1496.643880477057	418.376220543875	1034.610311252454	945.470575112749	574.194328871793	1002.843710796802	963.023294076098	301.705137594632	1075.293082400946	741.712681862251	550.591030073740	1001.186171656162	630.448734151324	621.247458451358	1078.206133256947	573.926584026927	542.803595047739	1074.422174996962	467.900997422979	562.845233688685	1064.633826219052	758.372512363091	325.028870255188	980.111735308996	638.109137364026	269.247638668555	1073.775236130131	566.360887648163	325.589002548460	1078.264082959459	497.869139636141	333.654895458119	1056.383804443014	424.536346044072	325.151020526218	971.258622779113	305.371592758055	277.150195990106	1034.205372190974	196.853539654242	343.773911717668	1005.464070170997	395.838228643128	572.042974350298	894.575765322010	340.651837829543	639.470940097601	890.141868784378	231.734012791508	586.513454780369	698.175667883159	134.210813895141	565.652639289121	874.443871074071	114.875611673075	602.954991584673	770.023535676627	91.537340743562	638.720374634861	962.742599614062	33.543492316717	630.212894405319	917.222633352506	38.170587812129	390.715229905519	986.911284864933	35.137004747656	306.185849260367	1070.150992458182	97.745222212619	329.718881211345	1197.696856891399	48.532378179010	294.545361377392	916.545313373270	1077.270948282936	149.754970591262	1029.941757993993	839.869596475587	138.562977160024	1078.083155631179	1102.653528644499	706.286302054188	1274.541797868511	934.698021817998	671.813715800149	
90	5.333357142857	798.086292211854	1006.973953086308	470.695942969612	951.091510275074	1429.936827764225	260.723289741767	1071.044197472663	1369.999428722019	413.327783664557	1003.411286911060	1446.805700346050	592.540841303437	946.849595321262	1496.714982875223	415.688841674191	1032.778124325279	945.657775175745	572.736717317437	1003.221958910824	963.207957948320	300.083686351713	1079.591942351085	744.703934532761	549.079547525500	1008.878152019664	631.522839524093	619.554766969865	1088.363849014953	576.782513606799	541.691991336949	1086.269950640718	469.503682334247	561.957477978203	1063.345726708111	757.600636456732	323.679220693913	978.479075705683	638.089900381605	267.278847542064	1070.948564270805	565.681757736478	324.538029366145	1074.801092750027	497.220152070679	332.688850094435	1052.785111288041	423.988724424461	324.169223954409	967.547806605574	304.977818793710	276.175862862034	1029.589773109238	196.495857554647	343.515074900680	1015.525234692561	397.839423004837	570.996473790099	902.957401303667	346.243074323822	638.549051438189	895.372030286049	237.281759782084	586.344561325466	700.616663964520	148.211888231319	565.966725596476	875.611974798766	119.284699892766	603.089378385508	770.027843371450	101.597469346039	638.899751528386	958.760100298532	32.714557228995	630.075013057755	911.932629667749	38.136097242626	390.672384170028	981.602382443737	35.058870127579	306.119473198106	1064.899730775777	97.519251546138	329.732974596925	1192.454481460950	48.218976951094	294.502695217932	923.545856707851	1077.651557259880	144.375157566977	1043.124833106451	843.233754646997	133.215389832989	1068.243184503580	1100.945429487079	705.308411015078	1253.694859542084	919.552913888210	675.373696433152	
91	5.346428571429	796.746190398769	1006.669383516684	467.314483329430	952.789016721848	1429.832145319431	258.354321726678	1070.796221094340	1369.812499747175	412.448991949577	1001.112559089158	1446.551498492389	590.968156757530	946.741686107759	1496.735912318720	413.234520493778	1030.953083467363	945.828151443329	571.331826729470	1003.433646203138	963.388400139765	298.525888150684	1083.704830675020	747.914781654079	547.491343123937	1016.564782038740	632.960590058046	617.911811610172	1098.227040093881	580.074634108215	540.480975046628	1097.985796390750	471.687153633523	560.885921386644	1062.065368212390	756.905114082313	322.485561983595	976.985811329560	638.070389978725	265.353173054077	1068.285331611426	565.048062833899	323.519343669964	1071.524454655944	496.569590404173	331.724919840403	1049.335031999187	423.428169054514	323.211614675335	963.947667858331	304.600631609908	275.204171857017	1025.039549066306	196.133646622048	343.251396968062	1025.673188672079	400.279384890452	569.874180533276	911.695861312134	352.081285201825	637.643905339005	901.071716250898	243.184136520405	586.149171911235	704.010379572650	162.452573891720	566.362521785626	877.412417480103	124.191224619199	603.185287102139	770.905353327082	112.023804851320	639.090653194691	955.334256180583	32.026196555697	629.783800091281	906.658022005362	38.106713761168	390.619608889310	976.315109607714	34.997800478818	306.044670965765	1059.673043729265	97.304676315921	329.745098504580	1187.233835950427	47.904469745642	294.463983136745	930.470931111136	1078.139502753847	139.206024064264	1056.307947507703	846.955215647041	127.934286718458	1057.563354982020	1099.166203752587	704.623115522689	1231.537859754775	905.638217943072	679.421775264343	
92	5.359500000000	795.357239289710	1006.348255268377	464.098308162059	954.471188554271	1429.718693108752	256.262164213936	1070.530752809311	1369.591681450215	411.810384155785	998.804710924365	1446.216425411109	589.639546974153	946.680677988838	1496.742229772371	411.045023394041	1029.169875428776	946.029975402213	569.977091675192	1003.513531116812	963.586427270032	297.021804754523	1087.518604823255	751.327068238919	545.774223930093	1024.117145916143	634.792024091426	616.309959729863	1107.615048255400	583.791660220234	539.122780213949	1109.414716899144	474.435830292256	559.646137276875	1060.845019836483	756.285929971023	321.363721235151	975.583149471310	638.035311444281	263.519703300300	1065.786401517861	564.446926100849	322.509411146727	1068.448292302546	495.923784270774	330.783748970825	1046.043471943348	422.862522309433	322.301121566494	960.450835419219	304.256703409034	274.266307601307	1020.554455035667	195.772307307402	342.992550230921	1035.756920054973	403.142530882496	568.709245275088	920.623821389806	358.075645601734	636.759399300201	907.178467422805	249.310581910720	585.949350149070	708.308371470953	176.485789549721	566.863492635078	879.920283332467	129.462385185929	603.249652635975	772.730531803655	122.452218824162	639.287174184831	952.719217288600	31.594508626749	629.285605584676	901.397277603257	38.082652293981	390.555389131501	971.048798880596	34.954526546794	305.961184074645	1054.465914584189	97.111921181069	329.751801447340	1182.030869818566	47.606829091673	294.425555453629	937.307598517928	1078.772875774650	134.284439320233	1069.466471004359	851.089379388313	122.760340632373	1046.077844251783	1097.440626477944	704.244191928980	1208.279722367925	893.077814053417	683.833764000955	
